<?xml version="1.0" encoding="utf-8"?>
<!-- Generator: Adobe Illustrator 19.2.0, SVG Export Plug-In . SVG Version: 6.00 Build 0)  -->
<svg version="1.1" id="Layer_1" xmlns="http://www.w3.org/2000/svg" xmlns:xlink="http://www.w3.org/1999/xlink" x="0px" y="0px" width="130px" height="130px"
	 viewBox="0 0 24 24" style="enable-background:new 0 0 24 24;" xml:space="preserve">
<style type="text/css">
	.st0{fill:#E8E8E8;}
</style>
<path class="st0" d="M11,0l5.2,4L11,8V5.1C7.6,5.6,5,8.5,5,12c0,2.2,1.1,4.2,2.7,5.5l-1.6,1.2C4.2,17.1,3,14.7,3,12
	c0-4.6,3.5-8.5,8-8.9V0z M13,16l-5.2,4l5.2,4v-3.1c4.5-0.5,8-4.3,8-8.9c0-2.7-1.2-5.1-3.1-6.8l-1.6,1.2C17.9,7.8,19,9.8,19,12
	c0,3.5-2.6,6.4-6,6.9C13,18.9,13,16,13,16z"/>
</svg>
