<?xml version="1.0" encoding="utf-8"?>
<!-- Generator: Adobe Illustrator 19.2.0, SVG Export Plug-In . SVG Version: 6.00 Build 0)  -->
<svg version="1.1" id="Layer_1" xmlns="http://www.w3.org/2000/svg" xmlns:xlink="http://www.w3.org/1999/xlink" x="0px" y="0px" width="80" height="80"
	 viewBox="0 0 22.7 22.7" style="enable-background:new 0 0 22.7 22.7;" xml:space="preserve">
<style type="text/css">
	.st0{fill:#797979;}
	.st1{fill:none;stroke:#FF0D47;stroke-width:1.2;stroke-miterlimit:10;}
</style>
<path class="st0" d="M11.1,6.2c1.9,0,3.5,1.5,3.5,3.3c0,1.8-1.5,4.2-3.5,7.4c-2-3.2-3.5-5.6-3.5-7.4C7.6,7.7,9.2,6.2,11.1,6.2
	 M11.1,5.1c-2.4,0-4.7,2-4.7,4.4c0,2.4,2,5.4,4.7,9.6c2.6-4.2,4.7-7.1,4.7-9.6C15.8,7,13.6,5.1,11.1,5.1z M11.1,11.5
	c-1,0-1.8-0.8-1.8-1.8S10.1,8,11.1,8s1.8,0.8,1.8,1.8C12.9,10.7,12.1,11.5,11.1,11.5z"/>
<circle class="st1" cx="11.4" cy="11.4" r="10.8"/>
<line class="st1" x1="4.3" y1="3.9" x2="19.4" y2="18.8"/>
</svg>
