<?xml version="1.0" encoding="utf-8"?>
<!-- Generator: Adobe Illustrator 19.2.0, SVG Export Plug-In . SVG Version: 6.00 Build 0)  -->
<svg version="1.1" id="Layer_1" xmlns="http://www.w3.org/2000/svg" xmlns:xlink="http://www.w3.org/1999/xlink" x="0px" y="0px" width="72px"
	 viewBox="0 0 24 24" style="enable-background:new 0 0 24 24;" xml:space="preserve">
<style type="text/css">
	.st0{fill:#a1a1a1;}
</style>
<path class="st0" d="M13.8,13h3L15,17h3l-6,7l2-5h-3L13.8,13z M20.4,7.5c-0.2-3.2-3-5.8-6.4-5.5c-1.1-1.2-2.7-2-4.5-2
	C6.3,0,3.7,2.4,3.6,5.5C1.5,5.9,0,7.6,0,9.7C0,12.1,1.9,14,4.4,14h1.3c0.8,1.2,2.1,2,3.7,2h1.4l0.9-2H9.4C8.1,14,7,13,7,11.7
	c0-2.1,2.1-2.6,3.5-2.5c-0.1-1.4,0.1-5.2,4-5.2c3.8,0,4.2,3.8,4,5.2C20,9.1,22,9.6,22,11.7c0,1.3-1.1,2.3-2.4,2.3H18l-0.9,2h2.5
	c2.4,0,4.4-1.9,4.4-4.3C24,9.6,22.5,7.9,20.4,7.5z M8.6,7.5C6.6,7.9,4.9,9.6,5,12H4.4C3.1,12,2,11,2,9.7c0-2.1,2.1-2.6,3.5-2.5
	C5.4,5.9,5.6,2,9.5,2c1,0,1.7,0.2,2.3,0.6C10,3.6,8.7,5.4,8.6,7.5z"/>
</svg>
