<?xml version="1.0" encoding="utf-8"?>
<!-- Generator: Adobe Illustrator 19.2.0, SVG Export Plug-In . SVG Version: 6.00 Build 0)  -->
<svg version="1.1" id="Layer_1" xmlns="http://www.w3.org/2000/svg" xmlns:xlink="http://www.w3.org/1999/xlink" x="0px" y="0px" width="72px"
	 viewBox="0 0 24 24" style="enable-background:new 0 0 24 24;" xml:space="preserve">
<style type="text/css">
	.st0{fill:#a1a1a1;}
</style>
<path class="st0" d="M20.4,8.5c-0.2-3.2-3-5.8-6.4-5.5c-1.1-1.2-2.7-2-4.5-2C6.3,1,3.7,3.4,3.6,6.5C1.5,6.9,0,8.6,0,10.7
	C0,13.1,1.9,15,4.4,15h1.3c0.8,1.2,2.1,2,3.7,2h10.3c2.4,0,4.4-1.9,4.4-4.3C24,10.6,22.5,8.9,20.4,8.5z M5,13H4.4
	C3.1,13,2,12,2,10.7c0-2.1,2.1-2.6,3.5-2.5C5.4,6.9,5.6,3,9.5,3c1,0,1.7,0.2,2.3,0.6C10,4.6,8.7,6.4,8.6,8.5C6.6,8.9,4.9,10.6,5,13z
	 M19.6,15H9.4C8.1,15,7,14,7,12.7c0-2.1,2.1-2.6,3.5-2.5c-0.1-1.4,0.1-5.2,4-5.2c3.8,0,4.2,3.8,4,5.2c1.5-0.1,3.5,0.4,3.5,2.5
	C22,14,20.9,15,19.6,15z M5.6,23l-1.4-1.4L7.8,18l1.4,1.4L5.6,23z M14.1,19.4L12.7,18l-3.6,3.6l1.4,1.4L14.1,19.4z M19,19.4L17.6,18
	L14,21.6l1.4,1.4L19,19.4z"/>
</svg>
