<?xml version="1.0" encoding="utf-8"?>
<!-- Generator: Adobe Illustrator 19.2.0, SVG Export Plug-In . SVG Version: 6.00 Build 0)  -->
<svg version="1.1" id="Layer_1" xmlns="http://www.w3.org/2000/svg" xmlns:xlink="http://www.w3.org/1999/xlink" x="0px" y="0px" width="72px"
	 viewBox="0 0 24 24" style="enable-background:new 0 0 24 24;" xml:space="preserve">
<style type="text/css">
	.st0{fill:#a1a1a1;}
</style>
<path class="st0" d="M14,19.2c0,0.7-0.6,1.2-1.2,1.2s-1.2-0.6-1.2-1.2s0.6-1.2,1.2-1.2S14,18.6,14,19.2z M10.2,20.5
	c-0.7,0-1.2,0.6-1.2,1.2S9.6,23,10.2,23s1.2-0.6,1.2-1.2S10.9,20.5,10.2,20.5z M19,19.2c0,0.7-0.6,1.2-1.2,1.2s-1.2-0.6-1.2-1.2
	s0.6-1.2,1.2-1.2S19,18.6,19,19.2z M15.2,20.5c-0.7,0-1.2,0.6-1.2,1.2s0.6,1.2,1.2,1.2s1.2-0.6,1.2-1.2S15.9,20.5,15.2,20.5z
	 M9,19.2c0,0.7-0.6,1.2-1.2,1.2s-1.2-0.6-1.2-1.2S7.1,18,7.8,18S9,18.6,9,19.2z M5.2,20.5c-0.7,0-1.2,0.6-1.2,1.2S4.6,23,5.2,23
	s1.2-0.6,1.2-1.2S5.9,20.5,5.2,20.5z M24,12.7c0,2.4-1.9,4.3-4.4,4.3H9.4c-1.6,0-2.9-0.8-3.7-2H4.4C1.9,15,0,13.1,0,10.7
	c0-2.1,1.5-3.8,3.6-4.2C3.7,3.4,6.3,1,9.5,1c1.8,0,3.4,0.8,4.5,2c3.4-0.3,6.3,2.3,6.4,5.5C22.5,8.9,24,10.6,24,12.7z M8.6,8.5
	c0.1-2.1,1.4-3.9,3.2-4.9C11.2,3.3,10.5,3,9.5,3c-3.9,0-4.1,3.9-4,5.2C4.1,8.1,2,8.6,2,10.7C2,12,3.1,13,4.4,13H5
	C4.9,10.6,6.6,8.9,8.6,8.5z M22,12.7c0-2.1-2-2.6-3.5-2.5c0.2-1.4-0.2-5.2-4-5.2c-3.9,0-4.1,3.9-4,5.2C9.1,10.1,7,10.6,7,12.7
	C7,14,8.1,15,9.4,15h10.3C20.9,15,22,14,22,12.7z M16.5,8.8L15,9.6V8h-1v1.6l-1.5-0.9L12,9.6l1.5,0.9L12,11.4l0.5,0.9l1.5-0.9V13h1
	v-1.6l1.5,0.9l0.5-0.9l-1.5-0.9L17,9.6L16.5,8.8z"/>
</svg>
