<?xml version="1.0" encoding="utf-8"?>
<!-- Generator: Adobe Illustrator 19.2.0, SVG Export Plug-In . SVG Version: 6.00 Build 0)  -->
<svg version="1.1" id="Layer_1" xmlns="http://www.w3.org/2000/svg" xmlns:xlink="http://www.w3.org/1999/xlink" x="0px" y="0px" width="72px"
	 viewBox="0 0 24 24" style="enable-background:new 0 0 24 24;" xml:space="preserve">
<style type="text/css">
	.st0{fill:#a1a1a1;}
</style>
<path class="st0" d="M20.4,11.5c-0.2-3.2-3-5.8-6.4-5.5c-1.1-1.2-2.7-2-4.5-2C6.3,4,3.7,6.4,3.6,9.5C1.5,9.9,0,11.6,0,13.7
	C0,16.1,1.9,18,4.4,18h1.3c0.8,1.2,2.1,2,3.7,2h10.3c2.4,0,4.4-1.9,4.4-4.3C24,13.6,22.5,11.9,20.4,11.5z M5,16H4.4
	C3.1,16,2,15,2,13.7c0-2.1,2.1-2.6,3.5-2.5C5.4,9.9,5.6,6,9.5,6c1,0,1.7,0.2,2.3,0.6C10,7.6,8.7,9.4,8.6,11.5
	C6.6,11.9,4.9,13.6,5,16z M19.6,18H9.4C8.1,18,7,17,7,15.7c0-2.1,2.1-2.6,3.5-2.5c-0.1-1.4,0.1-5.2,4-5.2c3.8,0,4.2,3.8,4,5.2
	c1.5-0.1,3.5,0.4,3.5,2.5C22,17,20.9,18,19.6,18z"/>
</svg>
